IKResults
version=1
nRows=12
nColumns=24
inDegrees=yes

Units are S.I. units (second, meters, Newtons, ...)
If the header above contains a line with 'inDegrees', this indicates whether rotational values are in degrees (yes) or radians (no).

endheader
time	pelvis_tilt	pelvis_list	pelvis_rotation	pelvis_tx	pelvis_ty	pelvis_tz	hip_flexion_r	hip_adduction_r	hip_rotation_r	knee_angle_r	ankle_angle_r	subtalar_angle_r	mtp_angle_r	hip_flexion_l	hip_adduction_l	hip_rotation_l	knee_angle_l	ankle_angle_l	subtalar_angle_l	mtp_angle_l	lumbar_extension	lumbar_bending	lumbar_rotation
      2.30000000	     11.49107166	      2.78599448	   -180.94601551	      0.32461140	      0.47747875	     -1.21952292	     85.58500675	    -28.54751658	     -6.84557263	   -117.31082730	     40.47206479	      9.84134157	      0.00000000	     90.44489305	    -33.88335566	     -0.73284028	   -117.74677523	     40.40377426	     13.30431206	      0.00000000	    -12.29160098	      2.08552520	      4.50169808
      2.30500000	     11.58908751	      2.79809939	   -180.94056111	      0.32469199	      0.48204519	     -1.21955481	     85.00721364	    -28.38579877	     -7.03983145	   -116.46990519	     40.39522366	     10.20946924	      0.00000000	     89.85683221	    -33.79412087	     -1.09230801	   -116.94554092	     40.14696931	     13.16284712	      0.00000000	    -12.17054627	      2.08079385	      4.53172485
      2.31000000	     11.64657057	      2.80216960	   -180.92352901	      0.32468627	      0.48661965	     -1.21952689	     84.43576464	    -28.29981480	     -7.49008081	   -115.69617861	     39.99442347	      9.62092835	      0.00000000	     89.20946249	    -33.69802148	     -1.47320719	   -116.15474340	     39.95297192	     13.09444084	      0.00000000	    -12.09266892	      2.08382661	      4.52552356
      2.31500000	     11.71950649	      2.79726735	   -180.90451687	      0.32471790	      0.49126126	     -1.21958493	     83.82569704	    -28.15423329	     -7.67377956	   -114.82914860	     39.89015398	     10.04019831	      0.00000000	     88.57209216	    -33.60171975	     -1.85721970	   -115.33083480	     39.71096163	     13.02544130	      0.00000000	    -11.99747576	      2.05931667	      4.51614383
      2.32000000	     11.79248837	      2.79740082	   -180.90863163	      0.32465407	      0.49591443	     -1.21961216	     83.24671965	    -28.01088764	     -7.97582618	   -113.99726465	     39.62822545	      9.99519849	      0.00000000	     87.93082853	    -33.53007630	     -2.24035590	   -114.51164839	     39.47118645	     12.95937216	      0.00000000	    -11.89249924	      2.05583059	      4.50963458
      2.32500000	     11.84615809	      2.81880110	   -180.90612691	      0.32454380	      0.50063360	     -1.21960542	     82.63225795	    -27.87615837	     -8.31363489	   -113.16806096	     39.37529845	      9.85717210	      0.00000000	     87.28058222	    -33.45192559	     -2.59829440	   -113.68866366	     39.25667254	     12.86935521	      0.00000000	    -11.79528268	      2.08119713	      4.51607218
      2.33000000	     11.85354757	      2.70294509	   -180.89430059	      0.32435052	      0.50539079	     -1.21933000	     82.09393136	    -27.83466006	     -8.57812965	   -112.37715647	     38.95332357	      9.26891463	      0.00000000	     86.73969819	    -33.24066206	     -2.35196940	   -112.64470908	     38.39694977	     13.76802176	      0.00000000	    -11.74091982	      1.98394811	      4.49563287
      2.33500000	     11.93370680	      2.81276211	   -180.92862656	      0.32430051	      0.51006134	     -1.21967425	     81.42423790	    -27.56545491	     -8.89108055	   -111.49101700	     38.86787814	      9.62578629	      0.00000000	     85.93108385	    -33.30275253	     -3.35515662	   -112.03859144	     38.74507824	     12.67185907	      0.00000000	    -11.62536439	      2.06012801	      4.54729640
      2.34000000	     11.99679455	      2.76548680	   -180.91181858	      0.32416675	      0.51478104	     -1.21967211	     80.87791568	    -27.47245597	     -9.26578709	   -110.66918564	     38.40232658	      9.02768129	      0.00000000	     85.23245340	    -33.17819069	     -3.79194943	   -111.18647979	     38.51726171	     12.60602501	      0.00000000	    -11.50558082	      2.01082904	      4.52298183
      2.34500000	     12.04960891	      2.74378718	   -180.90331321	      0.32399413	      0.51949603	     -1.21968706	     80.26363877	    -27.31399251	     -9.40906175	   -109.78376625	     38.26686081	      9.38388721	      0.00000000	     84.54868540	    -33.07415659	     -4.18969208	   -110.32361996	     38.28800404	     12.56965227	      0.00000000	    -11.39158542	      1.99423352	      4.50130118
      2.35000000	     12.10511030	      2.71548737	   -180.91384611	      0.32378507	      0.52427369	     -1.21970278	     79.70571941	    -27.17825365	     -9.77417360	   -108.95490964	     37.80781791	      8.81267857	      0.00000000	     83.85386730	    -32.97873689	     -4.59829552	   -109.46776340	     38.02354039	     12.47290402	      0.00000000	    -11.27901329	      1.96870635	      4.46867465
      2.35500000	     12.14404904	      2.71559683	   -180.95390957	      0.32354374	      0.52907992	     -1.21968214	     79.09394816	    -26.98608392	    -10.04544567	   -108.08408211	     37.51705301	      8.71167174	      0.00000000	     83.16321032	    -32.90619102	     -4.96591057	   -108.62247094	     37.78253775	     12.38958803	      0.00000000	    -11.17448538	      1.97168474	      4.50698662
